<svg width="80" height="100" viewBox="0 0 80 100" fill="none" xmlns="http://www.w3.org/2000/svg">
<path d="M27.2731 36.3148L32.8888 43.7322C33.6899 44.77 34.8685 45.4496 36.1681 45.6231C37.4677 45.7966 38.7832 45.45 39.8286 44.6587C40.874 43.8674 41.5647 42.6953 41.7505 41.3974C41.9363 40.0995 41.6022 38.7807 40.8208 37.7279L37.9318 33.9115L47.7927 33.3204C48.6398 33.2613 49.4582 32.9888 50.1715 32.5282C50.8849 32.0675 51.47 31.4338 51.8724 30.6861C52.2748 29.9383 52.4813 29.1008 52.4727 28.2517C52.4642 27.4026 52.2408 26.5695 51.8234 25.83L43.8832 12.0768C43.451 11.3461 42.841 10.7366 42.1099 10.3051C41.3788 9.87349 40.5504 9.63389 39.7018 9.60856C38.8532 9.58324 38.012 9.773 37.2564 10.1602C36.5009 10.5474 35.8556 11.1194 35.3806 11.8231L29.2201 21.1524C28.5853 22.1101 28.3012 23.2579 28.416 24.4012L23.7017 27.1224C22.6799 27.724 21.9053 28.6693 21.5165 29.7895C21.1276 30.9097 21.1499 32.1317 21.5793 33.2369C22.0088 34.3422 22.8173 35.2587 23.8604 35.8226C24.9035 36.3864 26.1132 36.5609 27.2731 36.3148ZM38.4625 41.0548C38.396 41.3615 38.2435 41.643 38.0227 41.8661C37.802 42.0893 37.5222 42.245 37.2162 42.3148C36.9102 42.3847 36.5906 42.3659 36.2949 42.2606C35.9992 42.1553 35.7396 41.9679 35.5466 41.7204L30.3376 34.8407L33.2021 33.1869L38.163 39.7397C38.3047 39.9243 38.4048 40.1375 38.4565 40.3645C38.5082 40.5914 38.5102 40.8269 38.4625 41.0548ZM32.0025 22.9884L38.1622 13.6589C38.3187 13.4218 38.5332 13.2286 38.7854 13.0977C39.0376 12.9668 39.319 12.9025 39.603 12.911C39.887 12.9194 40.1641 13.0004 40.4081 13.1461C40.652 13.2918 40.8546 13.4975 40.9967 13.7436L48.9369 27.4969C49.0789 27.7429 49.1557 28.021 49.16 28.305C49.1643 28.589 49.0959 28.8693 48.9614 29.1195C48.8268 29.3696 48.6306 29.5812 48.3913 29.7342C48.1521 29.8871 47.8777 29.9764 47.5942 29.9936L36.432 30.6625C36.1236 30.6787 35.8167 30.6098 35.5448 30.4634C35.2728 30.3171 35.0463 30.0988 34.8899 29.8325L33.4202 27.2869L31.9496 24.7393C31.7942 24.4716 31.7168 24.1657 31.7261 23.8563C31.7355 23.5469 31.8312 23.2462 32.0025 22.9884ZM24.7597 32.2869C24.5392 31.904 24.4795 31.4492 24.5938 31.0224C24.708 30.5955 24.9869 30.2314 25.3692 30.0099L29.6993 27.51L31.3663 30.3972L27.0359 32.8972C26.6529 33.1174 26.1983 33.1767 25.7717 33.0623C25.345 32.9479 24.9811 32.6691 24.7597 32.2869ZM50.7403 17.2868C50.9617 17.6693 51.3257 17.9484 51.7526 18.0628C52.1795 18.1772 52.6343 18.1177 53.0173 17.8972L55.9039 16.2305C56.2866 16.0094 56.5657 15.6453 56.68 15.2184C56.7944 14.7915 56.7345 14.3367 56.5135 13.9539C56.2926 13.5711 55.9287 13.2918 55.5018 13.1773C55.075 13.0627 54.6201 13.1224 54.2372 13.3431L51.3507 15.0098C50.9678 15.2309 50.6885 15.5949 50.574 16.0219C50.4595 16.4489 50.5194 16.9039 50.7403 17.2868ZM47.0798 13.6263C47.4627 13.8469 47.9174 13.9065 48.3442 13.792C48.771 13.6776 49.1349 13.3985 49.356 13.016L51.0227 10.1302C51.1323 9.94074 51.2035 9.73152 51.2321 9.51452C51.2608 9.29752 51.2465 9.077 51.1899 8.86554C51.1334 8.65409 51.0357 8.45585 50.9025 8.28216C50.7693 8.10846 50.6032 7.96271 50.4136 7.85324C50.2241 7.74377 50.0148 7.67271 49.7978 7.64414C49.5808 7.61557 49.3603 7.63003 49.1488 7.68671C48.9374 7.74339 48.7392 7.84117 48.5656 7.97446C48.392 8.10776 48.2463 8.27396 48.137 8.46356L46.4703 11.3493C46.3607 11.5388 46.2896 11.7481 46.2609 11.9651C46.2323 12.1821 46.2466 12.4027 46.3033 12.6141C46.3599 12.8256 46.4576 13.0238 46.5908 13.1975C46.7241 13.3712 46.8902 13.5169 47.0798 13.6263ZM52.0798 22.2868C52.0798 22.5057 52.1228 22.7225 52.2066 22.9247C52.2903 23.1269 52.4131 23.3107 52.5679 23.4655C52.7226 23.6202 52.9064 23.743 53.1086 23.8267C53.3109 23.9105 53.5276 23.9535 53.7465 23.9535H57.0798C57.5219 23.9535 57.9458 23.7779 58.2584 23.4653C58.5709 23.1528 58.7465 22.7289 58.7465 22.2868C58.7465 21.8448 58.5709 21.4209 58.2584 21.1083C57.9458 20.7957 57.5219 20.6202 57.0798 20.6202H53.7465C53.5276 20.6201 53.3109 20.6632 53.1086 20.7469C52.9064 20.8306 52.7226 20.9534 52.5679 21.1082C52.4131 21.263 52.2903 21.4467 52.2066 21.6489C52.1228 21.8512 52.0798 22.0679 52.0798 22.2868Z" fill="#E6BD2B"/>
<path d="M78.3078 96.6667H74.9744V36.6666C74.9726 34.8991 74.2696 33.2045 73.0197 31.9547C71.7699 30.7048 70.0753 30.0018 68.3078 30H66.4097C66.8856 26.2476 66.5572 22.4369 65.4464 18.8212C64.3356 15.2056 62.4677 11.8679 59.967 9.03001C57.4664 6.19214 54.3902 3.91916 50.9431 2.3622C47.4959 0.80525 43.7568 0 39.9744 0C36.192 0 32.4529 0.80525 29.0057 2.3622C25.5586 3.91916 22.4824 6.19214 19.9818 9.03001C17.4811 11.8679 15.6133 15.2056 14.5024 18.8212C13.3916 22.4369 13.0632 26.2476 13.5391 30H11.6411C9.87352 30.0018 8.17892 30.7048 6.92909 31.9547C5.67925 33.2045 4.97627 34.8991 4.97438 36.6666V96.6667H1.64105C1.20349 96.6734 0.78615 96.852 0.47912 97.1638C0.17209 97.4757 0 97.8957 0 98.3333C0 98.7709 0.17209 99.191 0.47912 99.5028C0.78615 99.8146 1.20349 99.9932 1.64105 100H78.3078C78.7453 99.9932 79.1627 99.8146 79.4697 99.5028C79.7767 99.191 79.9488 98.7709 79.9488 98.3333C79.9488 97.8957 79.7767 97.4757 79.4697 97.1638C79.1627 96.852 78.7453 96.6734 78.3078 96.6667ZM39.9744 3.33327C46.1607 3.3402 52.0916 5.80076 56.4659 10.1751C60.8403 14.5495 63.3008 20.4804 63.3078 26.6666C62.0263 57.6215 17.9177 57.6125 16.6411 26.6664C16.6481 20.4802 19.1086 14.5494 23.483 10.1751C27.8573 5.80074 33.7882 3.34021 39.9744 3.33327ZM56.6411 50H63.3078L63.3102 55H56.6411V50ZM36.6411 53.1019C38.8531 53.4026 41.0957 53.4026 43.3077 53.1019V55H36.6411V53.1019ZM23.3102 55H16.6411V50H23.3077L23.3102 55ZM31.6411 96.6667V81.6667C31.6415 81.2248 31.8172 80.8011 32.1297 80.4886C32.4422 80.1762 32.8658 80.0004 33.3077 80H46.6411C47.083 80.0004 47.5066 80.1762 47.8191 80.4886C48.1316 80.8011 48.3073 81.2248 48.3078 81.6667V96.6667H31.6411ZM51.6411 96.6667V81.6667C51.6396 80.341 51.1124 79.0701 50.175 78.1327C49.2377 77.1954 47.9667 76.6681 46.6411 76.6666H33.3077C31.9821 76.6681 30.7112 77.1954 29.7738 78.1327C28.8364 79.0701 28.3092 80.341 28.3077 81.6667V96.6667H8.30772V36.6666C8.30873 35.7829 8.66024 34.9356 9.28515 34.3107C9.91005 33.6858 10.7573 33.3343 11.6411 33.3333H14.1853C15.5259 38.4992 18.3859 43.144 22.3953 46.6666H16.6411C15.7573 46.6676 14.9101 47.0192 14.2852 47.6441C13.6602 48.269 13.3087 49.1162 13.3077 50V55C13.3087 55.8837 13.6602 56.731 14.2852 57.3559C14.9101 57.9808 15.7573 58.3323 16.6411 58.3333H23.3077C24.1915 58.3323 25.0387 57.9808 25.6636 57.3559C26.2885 56.731 26.6401 55.8837 26.6411 55V50C26.6411 49.8997 26.6202 49.8051 26.6115 49.707C28.7072 50.9255 30.9603 51.8504 33.3077 52.4557V55C33.3088 55.8837 33.6603 56.731 34.2852 57.3559C34.9101 57.9808 35.7573 58.3323 36.6411 58.3333H43.3077C44.1915 58.3323 45.0388 57.9808 45.6637 57.3559C46.2886 56.731 46.6401 55.8837 46.6411 55V52.4557C48.9885 51.8504 51.2416 50.9255 53.3374 49.707C53.3286 49.8051 53.3078 49.8997 53.3078 50V55C53.3088 55.8837 53.6603 56.731 54.2852 57.3559C54.9101 57.9808 55.7573 58.3323 56.6411 58.3333H63.3078C64.1915 58.3323 65.0388 57.9808 65.6637 57.3559C66.2886 56.731 66.6401 55.8837 66.6411 55V50C66.6401 49.1162 66.2886 48.269 65.6637 47.6441C65.0388 47.0192 64.1915 46.6676 63.3078 46.6666H57.5536C61.563 43.144 64.423 38.4992 65.7636 33.3333H68.3078C69.1915 33.3343 70.0388 33.6858 70.6637 34.3107C71.2886 34.9356 71.6401 35.7829 71.6411 36.6666V96.6667H51.6411Z" fill="#430303"/>
<path d="M23.3079 61.6667H16.6412C15.7575 61.6678 14.9102 62.0193 14.2853 62.6442C13.6604 63.2691 13.3089 64.1163 13.3079 65.0001V70.0001C13.3089 70.8838 13.6604 71.7311 14.2853 72.356C14.9102 72.9809 15.7575 73.3324 16.6412 73.3334H23.3079C24.1916 73.3324 25.0389 72.9809 25.6638 72.356C26.2887 71.7311 26.6402 70.8838 26.6412 70.0001V65.0001C26.6402 64.1163 26.2887 63.2691 25.6638 62.6442C25.0389 62.0193 24.1916 61.6678 23.3079 61.6667ZM16.6412 70.0001V65.0001H23.3079L23.3103 70.0001H16.6412ZM43.3079 61.6667H36.6412C35.7575 61.6678 34.9102 62.0193 34.2853 62.6442C33.6604 63.2691 33.3089 64.1163 33.3079 65.0001V70.0001C33.3089 70.8838 33.6604 71.7311 34.2853 72.356C34.9102 72.9809 35.7575 73.3324 36.6412 73.3334H43.3079C44.1916 73.3324 45.0389 72.9809 45.6638 72.356C46.2887 71.7311 46.6402 70.8838 46.6412 70.0001V65.0001C46.6402 64.1163 46.2887 63.2691 45.6638 62.6442C45.0389 62.0193 44.1916 61.6678 43.3079 61.6667ZM36.6412 70.0001V65.0001H43.3079L43.3103 70.0001H36.6412ZM63.3079 61.6667H56.6412C55.7575 61.6678 54.9102 62.0193 54.2853 62.6442C53.6604 63.2691 53.3089 64.1163 53.3079 65.0001V70.0001C53.3089 70.8838 53.6604 71.7311 54.2853 72.356C54.9102 72.9809 55.7575 73.3324 56.6412 73.3334H63.3079C64.1916 73.3324 65.0389 72.9809 65.6638 72.356C66.2887 71.7311 66.6402 70.8838 66.6412 70.0001V65.0001C66.6402 64.1163 66.2887 63.2691 65.6638 62.6442C65.0389 62.0193 64.1916 61.6678 63.3079 61.6667ZM56.6412 70.0001V65.0001H63.3079L63.3103 70.0001H56.6412Z" fill="#430303"/>
</svg>
