<svg width="100" height="100" viewBox="0 0 100 100" fill="none" xmlns="http://www.w3.org/2000/svg">
<g clip-path="url(#clip0_80_778)">
<path fill-rule="evenodd" clip-rule="evenodd" d="M35.551 81.7145V93.0874C35.551 94.3312 36.0448 95.5229 36.9239 96.402C37.8031 97.2812 38.9958 97.7749 40.2385 97.7749C50.6885 97.7749 84.3416 97.7749 94.7916 97.7749C96.0344 97.7749 97.2271 97.2812 98.1062 96.402C98.9854 95.5229 99.4791 94.3312 99.4791 93.0874C99.4791 81.1812 99.4791 38.7312 99.4791 26.825C99.4791 25.5812 98.9854 24.3895 98.1062 23.5104C97.2271 22.6312 96.0344 22.1375 94.7916 22.1375C86.2052 22.1375 63.7104 22.1375 63.7104 22.1375C62.8479 22.1375 62.1479 22.8375 62.1479 23.7C62.1479 24.5625 62.8479 25.2625 63.7104 25.2625C63.7104 25.2625 86.2052 25.2625 94.7916 25.2625C95.2062 25.2625 95.6031 25.427 95.8969 25.7197C96.1896 26.0125 96.3541 26.4104 96.3541 26.825C96.3541 38.7312 96.3541 81.1812 96.3541 93.0874C96.3541 93.502 96.1896 93.9 95.8969 94.1927C95.6031 94.4854 95.2062 94.6499 94.7916 94.6499H40.2385C39.8239 94.6499 39.4271 94.4854 39.1344 94.1927C38.8406 93.9 38.676 93.502 38.676 93.0874V81.7145C38.676 80.8531 37.976 80.152 37.1135 80.152C36.251 80.152 35.551 80.8531 35.551 81.7145Z" fill="#430303"/>
<path fill-rule="evenodd" clip-rule="evenodd" d="M54.3198 96.2124V76.2999C54.3198 75.4374 53.6198 74.7374 52.7573 74.7374C51.8948 74.7374 51.1948 75.4374 51.1948 76.2999V96.2124C51.1948 97.0749 51.8948 97.7749 52.7573 97.7749C53.6198 97.7749 54.3198 97.0749 54.3198 96.2124ZM68.6709 53.0863H85.5063C86.749 53.0863 87.9417 52.5926 88.8208 51.7134C89.7 50.8353 90.1938 49.6426 90.1938 48.3988C90.1938 45.627 90.1938 41.5978 90.1938 38.8259C90.1938 37.5822 89.7 36.3905 88.8208 35.5113C87.9417 34.6322 86.749 34.1384 85.5063 34.1384C78.6479 34.1384 62.8865 34.1384 62.8865 34.1384C62.024 34.1384 61.324 34.8384 61.324 35.7009C61.324 36.5634 62.024 37.2634 62.8865 37.2634C62.8865 37.2634 78.6479 37.2634 85.5063 37.2634C85.9208 37.2634 86.3177 37.428 86.6104 37.7207C86.9042 38.0134 87.0688 38.4113 87.0688 38.8259V48.3988C87.0688 48.8134 86.9042 49.2113 86.6104 49.5041C86.3177 49.7968 85.9208 49.9613 85.5063 49.9613H68.6709C67.8083 49.9613 67.1084 50.6624 67.1084 51.5238C67.1084 52.3863 67.8083 53.0863 68.6709 53.0863ZM62.8865 70.9155H88.6313C89.4938 70.9155 90.1938 70.2155 90.1938 69.353C90.1938 68.4905 89.4938 67.7905 88.6313 67.7905H62.8865C62.024 67.7905 61.324 68.4905 61.324 69.353C61.324 70.2155 62.024 70.9155 62.8865 70.9155ZM62.8865 62.0009H77.1563C78.0188 62.0009 78.7188 61.3009 78.7188 60.4384C78.7188 59.5759 78.0188 58.8759 77.1563 58.8759H62.8865C62.024 58.8759 61.324 59.5759 61.324 60.4384C61.324 61.3009 62.024 62.0009 62.8865 62.0009ZM3.8573 81.8436V86.9155C3.8573 89.5051 5.95522 91.603 8.5448 91.603H11.2656C13.8542 91.603 15.9531 89.5051 15.9531 86.9155V76.2999C15.9531 75.4374 15.2531 74.7374 14.3906 74.7374C13.5281 74.7374 12.8281 75.4374 12.8281 76.2999V86.9155C12.8281 87.7791 12.1292 88.478 11.2656 88.478H8.5448C7.68126 88.478 6.9823 87.7791 6.9823 86.9155V81.8436C6.9823 80.9811 6.2823 80.2811 5.4198 80.2811C4.5573 80.2811 3.8573 80.9811 3.8573 81.8436Z" fill="#430303"/>
<path fill-rule="evenodd" clip-rule="evenodd" d="M64.449 6.9126C64.449 5.66885 63.9552 4.47718 63.0761 3.59801C62.1969 2.71885 61.0042 2.2251 59.7615 2.2251C49.3115 2.2251 15.6584 2.2251 5.20837 2.2251C3.96567 2.2251 2.77296 2.71885 1.89379 3.59801C1.01462 4.47718 0.520874 5.66885 0.520874 6.9126C0.520874 18.8188 0.520874 61.2688 0.520874 73.1751C0.520874 74.4188 1.01462 75.6105 1.89379 76.4897C2.77296 77.3688 3.96567 77.8626 5.20837 77.8626C15.6584 77.8626 49.3115 77.8626 59.7615 77.8626C61.0042 77.8626 62.1969 77.3688 63.0761 76.4897C63.9552 75.6105 64.449 74.4188 64.449 73.1751C64.449 61.2688 64.449 18.8188 64.449 6.9126ZM61.324 6.9126V73.1751C61.324 73.5897 61.1594 73.9876 60.8657 74.2803C60.573 74.573 60.1761 74.7376 59.7615 74.7376H5.20837C4.79379 74.7376 4.39692 74.573 4.10317 74.2803C3.81046 73.9876 3.64587 73.5897 3.64587 73.1751C3.64587 61.2688 3.64587 18.8188 3.64587 6.9126C3.64587 6.49801 3.81046 6.1001 4.10317 5.80739C4.39692 5.51468 4.79379 5.3501 5.20837 5.3501H59.7615C60.1761 5.3501 60.573 5.51468 60.8657 5.80739C61.1594 6.1001 61.324 6.49801 61.324 6.9126Z" fill="#E6BD2B"/>
<path fill-rule="evenodd" clip-rule="evenodd" d="M19.2896 3.7876C19.2896 2.92406 18.5896 2.2251 17.7271 2.2251H5.20837C2.61983 2.2251 0.520874 4.32301 0.520874 6.9126C0.520874 18.8188 0.520874 61.2688 0.520874 73.1751C0.520874 75.7636 2.61983 77.8626 5.20837 77.8626H17.7271C18.5896 77.8626 19.2896 77.1636 19.2896 76.3001V3.7876ZM16.1646 5.3501V74.7376H5.20837C4.34587 74.7376 3.64587 74.0386 3.64587 73.1751C3.64587 61.2688 3.64587 18.8188 3.64587 6.9126C3.64587 6.04906 4.34587 5.3501 5.20837 5.3501H16.1646ZM25.45 20.5053C25.45 23.2782 25.45 25.7147 25.45 28.4866C25.45 29.7303 25.9438 30.922 26.823 31.8011C27.7021 32.6803 28.8948 33.1741 30.1375 33.1741H50.4761C51.7188 33.1741 52.9115 32.6803 53.7907 31.8011C54.6698 30.922 55.1636 29.7303 55.1636 28.4866C55.1636 25.7147 55.1636 21.6855 55.1636 18.9126C55.1636 17.6699 54.6698 16.4772 53.7907 15.598C52.9115 14.7199 51.7188 14.2251 50.4761 14.2251H30.1375C29.275 14.2251 28.575 14.9261 28.575 15.7876C28.575 16.6501 29.275 17.3501 30.1375 17.3501H50.4761C50.8896 17.3501 51.2875 17.5147 51.5802 17.8084C51.874 18.1011 52.0386 18.4991 52.0386 18.9126V28.4866C52.0386 28.9011 51.874 29.2991 51.5802 29.5918C51.2875 29.8845 50.8896 30.0491 50.4761 30.0491H30.1375C29.723 30.0491 29.3261 29.8845 29.0323 29.5918C28.7396 29.2991 28.575 28.9011 28.575 28.4866V20.5053C28.575 19.6428 27.875 18.9428 27.0125 18.9428C26.15 18.9428 25.45 19.6428 25.45 20.5053ZM27.0125 51.0032H53.6011C54.4625 51.0032 55.1636 50.3032 55.1636 49.4407C55.1636 48.5782 54.4625 47.8782 53.6011 47.8782H27.0125C26.15 47.8782 25.45 48.5782 25.45 49.4407C25.45 50.3032 26.15 51.0032 27.0125 51.0032ZM27.0125 42.0886H41.75C42.6125 42.0886 43.3125 41.3886 43.3125 40.5261C43.3125 39.6636 42.6125 38.9636 41.75 38.9636H27.0125C26.15 38.9636 25.45 39.6636 25.45 40.5261C25.45 41.3886 26.15 42.0886 27.0125 42.0886Z" fill="#E6BD2B"/>
</g>
<defs>
<clipPath id="clip0_80_778">
<rect width="100" height="100" fill="white"/>
</clipPath>
</defs>
</svg>
