<svg width="100" height="100" viewBox="0 0 100 100" fill="none" xmlns="http://www.w3.org/2000/svg">
<g clip-path="url(#clip0_78_760)">
<path d="M67.1875 50.8125C68.3771 50.1648 69.3169 49.1392 69.8586 47.8978C70.4003 46.6563 70.513 45.2698 70.1788 43.9572C69.8446 42.6446 69.0826 41.4807 68.0132 40.6495C66.9438 39.8182 65.6279 39.3669 64.2734 39.3669C62.919 39.3669 61.6031 39.8182 60.5337 40.6495C59.4643 41.4807 58.7023 42.6446 58.3681 43.9572C58.0339 45.2698 58.1465 46.6563 58.6882 47.8978C59.2299 49.1392 60.1698 50.1648 61.3594 50.8125C58.3691 51.477 55.6947 53.141 53.7773 55.5299C51.86 57.9188 50.8142 60.8899 50.8125 63.9531V64.0625C50.8125 64.1631 50.8323 64.2626 50.8708 64.3555C50.9093 64.4484 50.9656 64.5328 51.0367 64.6039C51.1078 64.675 51.1922 64.7314 51.2851 64.7699C51.378 64.8083 51.4776 64.8281 51.5781 64.8281H76.9687C77.1718 64.8281 77.3665 64.7475 77.5101 64.6039C77.6537 64.4603 77.7344 64.2656 77.7344 64.0625V63.8906C77.7185 60.8382 76.6663 57.8816 74.7501 55.5055C72.8338 53.1294 70.1673 51.4747 67.1875 50.8125Z" fill="#430303"/>
<path d="M98.4375 79.9219L88 69.5C87.854 69.3569 87.6576 69.2767 87.4531 69.2767C87.2486 69.2767 87.0523 69.3569 86.9062 69.5L86.8125 69.5938L83.2812 66.0781C85.5595 62.7125 86.9012 58.8013 87.1687 54.7459C87.4363 50.6905 86.62 46.6369 84.8037 43.0012C82.9874 39.3654 80.2365 36.2783 76.8332 34.0567C73.4299 31.8351 69.4968 30.559 65.4375 30.3594V22.9844C65.4304 22.7042 65.319 22.4367 65.125 22.2344L65 22.1406L48.8438 5.98437L48.7344 5.89063C48.6716 5.82963 48.5972 5.78181 48.5156 5.75H48.25H48.0781H3.90625C2.88629 5.74971 1.90667 6.14836 1.17674 6.86077C0.446811 7.57318 0.024479 8.54283 0 9.5625L0 90.4375C0 91.4735 0.41155 92.4671 1.14411 93.1996C1.87668 93.9322 2.87025 94.3438 3.90625 94.3438H61.5312C62.5673 94.3438 63.5608 93.9322 64.2934 93.1996C65.0259 92.4671 65.4375 91.4735 65.4375 90.4375V76.1406C69.5142 75.935 73.4624 74.6459 76.875 72.4062L80.4531 75.9844C80.3258 76.1228 80.2551 76.3041 80.2551 76.4922C80.2551 76.6803 80.3258 76.8616 80.4531 77L90.9219 87.5C91.4136 87.9984 92.0001 88.3934 92.6468 88.6617C93.2935 88.93 93.9874 89.0663 94.6875 89.0625C95.7491 89.0681 96.7882 88.7564 97.6715 88.1674C98.5548 87.5784 99.242 86.739 99.6449 85.7568C100.048 84.7746 100.148 83.6944 99.9331 82.6548C99.718 81.6151 99.1972 80.6635 98.4375 79.9219ZM63.2812 90.4375C63.2772 90.9004 63.0915 91.3431 62.7642 91.6704C62.4369 91.9977 61.9941 92.1834 61.5312 92.1875H3.90625C3.43924 92.1834 2.99251 91.9961 2.66227 91.6658C2.33203 91.3356 2.1447 90.8889 2.14062 90.4219V9.5625C2.14475 9.09694 2.33258 8.65185 2.66326 8.3241C2.99393 7.99636 3.44067 7.81248 3.90625 7.8125H47V21.1094C47.002 21.5006 47.0814 21.8875 47.2334 22.2479C47.3855 22.6083 47.6073 22.9352 47.8861 23.2096C48.1649 23.484 48.4951 23.7007 48.8579 23.847C49.2207 23.9934 49.6088 24.0666 50 24.0625H63.2812V30.3125C57.3566 30.5314 51.7477 33.039 47.6336 37.3078C43.5196 41.5767 41.2209 47.2745 41.2209 53.2031C41.2209 59.1318 43.5196 64.8295 47.6336 69.0984C51.7477 73.3673 57.3566 75.8748 63.2812 76.0938V90.4375ZM76.5625 70C76.4325 70.0597 76.3156 70.1447 76.2188 70.25C71.9165 73.2251 66.6542 74.4766 61.4733 73.7569C56.2923 73.0372 51.5704 70.3987 48.242 66.3636C44.9136 62.3285 43.2214 57.1909 43.5002 51.9676C43.7791 46.7443 46.0087 41.8161 49.7478 38.1583C53.4869 34.5005 58.4629 32.3797 63.691 32.2157C68.9191 32.0517 74.0183 33.8565 77.9793 37.2727C81.9403 40.6889 84.4744 45.4677 85.0801 50.6632C85.6858 55.8588 84.3189 61.0923 81.25 65.3281H81.1562C81.0848 65.4067 81.0267 65.4964 80.9844 65.5938V65.8125C79.7186 67.413 78.2295 68.8232 76.5625 70ZM81.9688 74.4531L78.6094 71.1094C79.8423 70.1262 80.9683 69.0159 81.9688 67.7969L85.2969 71.125L81.9688 74.4531Z" fill="#E6BD2B"/>
<path d="M37.5 26.1094H7.98438C7.69844 26.1094 7.42421 26.223 7.22203 26.4252C7.01984 26.6273 6.90625 26.9016 6.90625 27.1875C6.90625 27.4734 7.01984 27.7477 7.22203 27.9499C7.42421 28.152 7.69844 28.2656 7.98438 28.2656H37.5C37.7859 28.2656 38.0602 28.152 38.2624 27.9499C38.4645 27.7477 38.5781 27.4734 38.5781 27.1875C38.5781 26.9016 38.4645 26.6273 38.2624 26.4252C38.0602 26.223 37.7859 26.1094 37.5 26.1094ZM37.5 42.3125H7.98438C7.84279 42.3125 7.7026 42.3404 7.57179 42.3946C7.44099 42.4487 7.32214 42.5282 7.22203 42.6283C7.12191 42.7284 7.0425 42.8472 6.98832 42.978C6.93414 43.1089 6.90625 43.249 6.90625 43.3906C6.90623 43.5315 6.93423 43.6709 6.9886 43.8009C7.04297 43.9308 7.12263 44.0486 7.22295 44.1475C7.32328 44.2464 7.44226 44.3243 7.57297 44.3768C7.70369 44.4292 7.84354 44.4552 7.98438 44.4531H37.5C37.6401 44.4552 37.7792 44.4292 37.9091 44.3765C38.0389 44.3239 38.1569 44.2457 38.256 44.1466C38.3551 44.0475 38.4333 43.9296 38.4859 43.7997C38.5386 43.6698 38.5646 43.5307 38.5625 43.3906C38.5646 43.2498 38.5386 43.1099 38.4861 42.9792C38.4337 42.8485 38.3557 42.7295 38.2569 42.6292C38.158 42.5289 38.0402 42.4492 37.9102 42.3948C37.7803 42.3405 37.6409 42.3125 37.5 42.3125ZM37.5 56.0938H7.98438C7.69844 56.0938 7.42421 56.2073 7.22203 56.4095C7.01984 56.6117 6.90625 56.8859 6.90625 57.1719C6.90625 57.4578 7.01984 57.732 7.22203 57.9342C7.42421 58.1364 7.69844 58.25 7.98438 58.25H37.5C37.7859 58.25 38.0602 58.1364 38.2624 57.9342C38.4645 57.732 38.5781 57.4578 38.5781 57.1719C38.5781 56.8859 38.4645 56.6117 38.2624 56.4095C38.0602 56.2073 37.7859 56.0938 37.5 56.0938ZM37.5 72.2969H7.98438C7.69844 72.2969 7.42421 72.4105 7.22203 72.6127C7.01984 72.8148 6.90625 73.0891 6.90625 73.375C6.90625 73.6609 7.01984 73.9352 7.22203 74.1374C7.42421 74.3395 7.69844 74.4531 7.98438 74.4531H37.5C37.7859 74.4531 38.0602 74.3395 38.2624 74.1374C38.4645 73.9352 38.5781 73.6609 38.5781 73.375C38.5781 73.0891 38.4645 72.8148 38.2624 72.6127C38.0602 72.4105 37.7859 72.2969 37.5 72.2969Z" fill="#430303"/>
</g>
<defs>
<clipPath id="clip0_78_760">
<rect width="100" height="100" fill="white"/>
</clipPath>
</defs>
</svg>
