<svg width="50" height="51" viewBox="0 0 50 51" fill="none" xmlns="http://www.w3.org/2000/svg">
<g clip-path="url(#clip0_73_551)">
<g clip-path="url(#clip1_73_551)">
<path d="M36.6251 7.54511C37.0297 7.54511 37.3576 7.21718 37.3576 6.81259C37.3576 6.408 37.0297 6.08008 36.6251 6.08008H17.5392C17.1346 6.08008 16.8066 6.408 16.8066 6.81259C16.8066 7.21718 17.1346 7.54511 17.5392 7.54511H36.6251Z" fill="#E6BD2B"/>
<path d="M12.6426 11.3942C12.6426 11.7987 12.9705 12.1267 13.3751 12.1267H36.6258C37.0304 12.1267 37.3583 11.7987 37.3583 11.3942C37.3583 10.9896 37.0304 10.6616 36.6258 10.6616H13.3751C12.9705 10.6616 12.6426 10.9896 12.6426 11.3942Z" fill="#E6BD2B"/>
<path d="M13.3751 16.7077H36.6258C37.0304 16.7077 37.3583 16.3798 37.3583 15.9752C37.3583 15.5706 37.0304 15.2427 36.6258 15.2427H13.3751C12.9705 15.2427 12.6426 15.5706 12.6426 15.9752C12.6426 16.3799 12.9705 16.7077 13.3751 16.7077Z" fill="#E6BD2B"/>
<path d="M36.6254 19.8242H25.0001C24.5955 19.8242 24.2676 20.1522 24.2676 20.5568C24.2676 20.9613 24.5955 21.2893 25.0001 21.2893H36.6254C37.03 21.2893 37.3579 20.9613 37.3579 20.5568C37.3579 20.1521 37.03 19.8242 36.6254 19.8242Z" fill="#E6BD2B"/>
<path d="M36.6254 24.4058H25.0001C24.5955 24.4058 24.2676 24.7337 24.2676 25.1383C24.2676 25.5429 24.5955 25.8708 25.0001 25.8708H36.6254C37.03 25.8708 37.3579 25.5429 37.3579 25.1383C37.3579 24.7337 37.03 24.4058 36.6254 24.4058Z" fill="#E6BD2B"/>
<path d="M48.7112 24.4781C48.6619 23.1928 47.9714 22.0089 46.8642 21.3113L42.9209 18.827V14.8285H45.6946C47.1994 14.8285 48.4236 13.6043 48.4236 12.0995V4.11367C48.4236 2.19267 46.8608 0.629883 44.9398 0.629883H10.2402C8.31719 0.629883 6.75264 2.19433 6.75264 4.11738V9.2207C6.75264 9.62529 7.08057 9.95322 7.48516 9.95322C7.88975 9.95322 8.21768 9.62529 8.21768 9.2207V4.11738C8.21768 3.00215 9.125 2.09482 10.2403 2.09482H42.1021C41.6955 2.66474 41.4561 3.36172 41.4561 4.11367V25.6314L29.5761 34.7821L27.1566 32.9488C25.8872 31.9868 24.1138 31.9868 22.8443 32.9488L20.4248 34.782L8.21777 25.3794V12.6451C8.21777 12.2405 7.88984 11.9126 7.48525 11.9126C7.08066 11.9126 6.75273 12.2405 6.75273 12.6451V19.033L3.13652 21.3114C2.0293 22.009 1.33877 23.1928 1.28945 24.4784C1.2873 24.5352 1.28613 24.5927 1.28613 24.6513V46.5376C1.28604 48.7941 3.09023 50.6299 5.30791 50.6299H44.6927C46.9104 50.6299 48.7146 48.7941 48.7146 46.5375V24.6512C48.7146 24.5926 48.7135 24.5351 48.7112 24.4781ZM44.9398 2.09482C46.0531 2.09482 46.9587 3.00039 46.9587 4.11367V12.0995C46.9587 12.7965 46.3917 13.3636 45.6946 13.3636H42.9209V4.11367C42.9209 3.00058 43.8267 2.09482 44.9398 2.09482ZM42.9209 20.5585L45.7377 22.3332L42.9209 24.5029V20.5585ZM3.11924 47.8945C2.88564 47.4982 2.75107 47.0337 2.75107 46.5375V24.6512C2.75107 24.6115 2.75186 24.5725 2.75322 24.5343C2.77002 24.0979 2.90732 23.6799 3.14072 23.3182L19.2145 35.6991L3.11924 47.8945ZM6.75264 24.251L4.26289 22.3332L6.75264 20.7645V24.251ZM5.30791 49.165C4.91377 49.165 4.54033 49.0728 4.20664 48.9084L23.7288 34.1164C24.4892 33.5402 25.5112 33.5403 26.2718 34.1164L32.458 38.8038C32.7804 39.0484 33.2399 38.9848 33.4842 38.6624C33.7285 38.34 33.6652 37.8805 33.3428 37.6362L30.7862 35.6991L46.86 23.3181C47.0935 23.6798 47.2307 24.0978 47.2475 24.534C47.2489 24.5725 47.2496 24.6114 47.2496 24.6511V46.5374C47.2496 47.0336 47.1149 47.4981 46.8814 47.8944L36.0742 39.7057C35.7519 39.4611 35.2922 39.5246 35.048 39.8471C34.8037 40.1695 34.867 40.629 35.1895 40.8733L45.7939 48.9082C45.4603 49.0726 45.0868 49.1648 44.6927 49.1648L5.30791 49.165Z" fill="#E6BD2B"/>
<path d="M12.6426 24.4653C12.6426 25.2402 13.273 25.8706 14.0479 25.8706H21.0316C21.8064 25.8706 22.4369 25.2402 22.4369 24.4653V21.2295C22.4369 20.4547 21.8064 19.8242 21.0316 19.8242H14.0479C13.273 19.8242 12.6426 20.4547 12.6426 21.2295V24.4653ZM14.1075 21.2892H20.972V24.4056H14.1075V21.2892Z" fill="#E6BD2B"/>
</g>
</g>
<defs>
<clipPath id="clip0_73_551">
<rect width="50" height="50" fill="white" transform="translate(0 0.629883)"/>
</clipPath>
<clipPath id="clip1_73_551">
<rect width="50" height="50" fill="white" transform="translate(0 0.629883)"/>
</clipPath>
</defs>
</svg>
