<svg width="25" height="25" viewBox="0 0 25 25" fill="none" xmlns="http://www.w3.org/2000/svg">
<path d="M12.5 0C13.4115 0 14.2253 0.227865 14.9414 0.683594C15.6576 1.13932 16.2272 1.74154 16.6504 2.49023C17.4642 2.22982 18.278 2.19727 19.0918 2.39258C19.9056 2.58789 20.6543 3.01107 21.3379 3.66211C21.9564 4.31315 22.3633 5.04557 22.5586 5.85938C22.7539 6.70573 22.7376 7.53581 22.5098 8.34961C23.2585 8.77279 23.8607 9.34245 24.3164 10.0586C24.7721 10.7747 25 11.5885 25 12.5C25 13.4115 24.7721 14.2253 24.3164 14.9414C23.8607 15.6576 23.2585 16.2272 22.5098 16.6504C22.998 18.3431 22.6074 19.9056 21.3379 21.3379C20.6543 21.9564 19.9056 22.3633 19.0918 22.5586C18.278 22.7539 17.4642 22.7376 16.6504 22.5098C16.2272 23.2585 15.6576 23.8607 14.9414 24.3164C14.2253 24.7721 13.4115 25 12.5 25C11.5885 25 10.7747 24.7721 10.0586 24.3164C9.34245 23.8607 8.77279 23.2585 8.34961 22.5098C7.53581 22.7376 6.70573 22.7539 5.85938 22.5586C5.04557 22.3958 4.31315 21.9889 3.66211 21.3379C2.39258 19.9056 2.00195 18.3431 2.49023 16.6504C1.74154 16.2272 1.13932 15.6576 0.683594 14.9414C0.227865 14.2253 0 13.4115 0 12.5C0 11.5885 0.227865 10.7747 0.683594 10.0586C1.13932 9.34245 1.74154 8.77279 2.49023 8.34961C2.22982 7.53581 2.19727 6.70573 2.39258 5.85938C2.58789 5.04557 3.01107 4.31315 3.66211 3.66211C4.31315 3.01107 5.04557 2.58789 5.85938 2.39258C6.70573 2.22982 7.53581 2.26237 8.34961 2.49023C8.77279 1.74154 9.34245 1.13932 10.0586 0.683594C10.7747 0.227865 11.5885 0 12.5 0ZM17.1875 10.9375C17.6758 10.4167 17.6758 9.87956 17.1875 9.32617C16.6667 8.87044 16.1296 8.87044 15.5762 9.32617L10.9375 13.9648L8.98438 12.0605C8.46354 11.6048 7.92643 11.6048 7.37305 12.0605C6.91732 12.6139 6.91732 13.151 7.37305 13.6719L10.1074 16.4062C10.6608 16.8945 11.1979 16.8945 11.7188 16.4062L17.1875 10.9375Z" fill="#D9B01D"/>
</svg>
