<svg width="30" height="30" viewBox="0 0 30 30" fill="none" xmlns="http://www.w3.org/2000/svg">
<g clip-path="url(#clip0_1385_1124)">
<path d="M15 29.6719C7.57031 29.6719 0.0234375 28.0781 0.0234375 25.0313C0.0234375 22.3125 5.83594 21.1875 8.32031 20.8359H8.41406C8.76563 20.8359 9.07031 21.0938 9.11719 21.4453C9.14063 21.6328 9.09375 21.8203 8.97656 21.9609C8.85938 22.1016 8.69531 22.2188 8.50781 22.2422C3.32812 22.9922 1.40625 24.3516 1.40625 25.0547C1.40625 26.3672 6.70313 28.2891 14.9766 28.2891C23.25 28.2891 28.5469 26.3672 28.5469 25.0547C28.5469 24.3516 26.6016 22.9922 21.375 22.2422C21.1875 22.2188 21.0234 22.125 20.9062 21.9609C20.7891 21.8203 20.7422 21.6328 20.7656 21.4453C20.8125 21.0938 21.1172 20.8359 21.4688 20.8359H21.5625C24.0703 21.1875 29.9297 22.3125 29.9297 25.0313C29.9531 28.0547 22.4297 29.6719 15 29.6719ZM14.5078 24.7031C14.1563 24.375 6.04687 16.7109 6.04687 9.1875C6.04687 4.26563 10.0547 0.257812 14.9766 0.257812C19.8984 0.257812 23.9062 4.26563 23.9062 9.1875C23.9062 16.5 15.7969 24.3516 15.4453 24.6797L14.9766 25.1484L14.5078 24.7031ZM15 1.66406C10.8516 1.66406 7.47656 5.03906 7.47656 9.1875C7.47656 15.0703 13.2188 21.375 15 23.1797C16.8047 21.3281 22.5469 14.9063 22.5469 9.1875C22.5234 5.0625 19.1484 1.66406 15 1.66406ZM15 13.1719C12.6562 13.1719 10.7578 11.2734 10.7578 8.92969C10.7578 6.58594 12.6562 4.6875 15 4.6875C17.3438 4.6875 19.2422 6.58594 19.2422 8.92969C19.2422 11.2734 17.3438 13.1719 15 13.1719ZM15 6.09375C13.4297 6.09375 12.1641 7.35938 12.1641 8.92969C12.1641 10.5 13.4297 11.7656 15 11.7656C16.5703 11.7656 17.8359 10.5 17.8359 8.92969C17.8359 7.35938 16.5469 6.09375 15 6.09375Z" fill="#430303"/>
</g>
<defs>
<clipPath id="clip0_1385_1124">
<rect width="30" height="30" fill="white"/>
</clipPath>
</defs>
</svg>
