<svg width="31" height="30" viewBox="0 0 31 30" fill="none" xmlns="http://www.w3.org/2000/svg">
<path d="M8.29886 12.3396C9.31394 14.1656 10.4821 15.9229 11.9975 17.5249C13.5197 19.1344 15.4046 20.6012 17.8556 21.8447L17.858 21.846L17.8585 21.8447C18.0371 21.9358 18.2072 21.9336 18.3669 21.8737C18.5985 21.7871 18.8397 21.5947 19.0743 21.3619C19.2532 21.1837 19.4774 20.8898 19.7199 20.5711C20.6635 19.331 21.8302 17.7982 23.4774 18.5608C23.5122 18.5767 23.5451 18.5954 23.576 18.6162L29.0655 21.7697C29.0852 21.7809 29.1041 21.793 29.122 21.8057C29.8497 22.3053 30.1469 23.0748 30.1501 23.9362C30.1535 24.8247 29.824 25.8192 29.3467 26.66C28.7174 27.7683 27.7796 28.5007 26.7064 28.9971C25.6832 29.4702 24.5476 29.7219 23.4511 29.8824C21.7363 30.1339 20.1196 29.9742 18.4732 29.4672C16.866 28.9723 15.2402 28.146 13.4677 27.0479L13.3387 26.968C12.5226 26.4625 11.6442 25.9188 10.7896 25.274C7.63294 22.8915 4.41842 19.4532 2.33405 15.6797C0.579447 12.5032 -0.380665 9.07719 0.142698 5.81041C0.429529 4.01777 1.20267 2.39051 2.53549 1.31263C3.70392 0.367236 5.28063 -0.14484 7.30735 0.0359942C7.54609 0.0566048 7.74728 0.192782 7.86064 0.384167L7.86211 0.383431L11.3767 6.33843C11.8944 7.00533 11.9519 7.66708 11.6719 8.3249C11.4405 8.86912 10.9623 9.36795 10.3283 9.83831C10.1354 9.9978 9.90919 10.1634 9.67585 10.3342C8.89117 10.9086 7.99363 11.5654 8.29886 12.3396ZM10.9606 18.5058C9.34019 16.7927 8.10576 14.9377 7.04088 13.0202C7.02223 12.99 7.00555 12.9581 6.99132 12.9245C6.21253 11.0943 7.60963 10.0721 8.82983 9.17975C9.03717 9.02812 9.23787 8.88114 9.41895 8.73098L9.41945 8.73172C9.43 8.72288 9.44104 8.7143 9.45257 8.70595C9.90478 8.37373 10.2306 8.05647 10.355 7.76449C10.4259 7.59789 10.3997 7.4146 10.2407 7.20874C10.2134 7.17709 10.1884 7.14225 10.1663 7.10495L6.82005 1.4358C5.38001 1.37667 4.2636 1.75993 3.43795 2.42805C2.39784 3.26941 1.78836 4.5772 1.55502 6.03467C1.0876 8.95304 1.97606 12.0692 3.58958 14.9905C5.57164 18.5784 8.63796 21.855 11.6532 24.1303C12.4823 24.756 13.3158 25.272 14.0902 25.7514L14.2193 25.8314C15.8922 26.8676 17.4132 27.6437 18.894 28.0996C20.3357 28.5434 21.7485 28.6835 23.244 28.4642C24.2277 28.3202 25.2347 28.0998 26.1069 27.6964C26.9292 27.3161 27.64 26.7677 28.1027 25.9534C28.4698 25.3063 28.7235 24.5663 28.7213 23.936C28.7198 23.536 28.6055 23.1928 28.3275 22.9928L22.8681 19.8573C22.2643 19.592 21.487 20.6133 20.8579 21.4399C20.587 21.7962 20.3365 22.1249 20.0835 22.3764C19.7211 22.7361 19.3184 23.0446 18.866 23.2134C18.3419 23.4094 17.7876 23.418 17.2085 23.1226L17.209 23.1216C14.6047 21.8003 12.593 20.232 10.9606 18.5058Z" fill="black"/>
</svg>
