<svg width="30" height="30" viewBox="0 0 30 30" fill="none" xmlns="http://www.w3.org/2000/svg">
<path d="M11.25 16.25C14.0114 16.25 16.25 14.0114 16.25 11.25C16.25 8.48858 14.0114 6.25 11.25 6.25C8.48858 6.25 6.25 8.48858 6.25 11.25C6.25 14.0114 8.48858 16.25 11.25 16.25Z" stroke="#430303" stroke-width="2" stroke-linecap="round" stroke-linejoin="round"/>
<path d="M20 23.75C20 19.6079 16.0825 16.25 11.25 16.25C6.41751 16.25 2.5 19.6079 2.5 23.75" stroke="#430303" stroke-width="2" stroke-linecap="round" stroke-linejoin="round"/>
<path d="M18.75 16.25C21.5114 16.25 23.75 14.0114 23.75 11.25C23.75 8.48857 21.5114 6.25 18.75 6.25C17.2566 6.25 15.9161 6.90469 15 7.94272" stroke="#430303" stroke-width="2" stroke-linecap="round" stroke-linejoin="round"/>
<path d="M27.5 23.7502C27.5 19.608 23.5825 16.2502 18.75 16.2502C17.741 16.2502 16.1213 15.8838 15 14.707" stroke="#430303" stroke-width="2" stroke-linecap="round" stroke-linejoin="round"/>
</svg>
