<svg width="30" height="30" viewBox="0 0 30 30" fill="none" xmlns="http://www.w3.org/2000/svg">
<g clip-path="url(#clip0_1385_1117)">
<path fill-rule="evenodd" clip-rule="evenodd" d="M30 15.7614L21.4551 30L14.6484 25.1839L15.1001 24.1318L20.0879 27.6296L20.1489 27.6753C20.2619 27.7535 20.3877 27.8064 20.5192 27.8308C20.6507 27.8553 20.7853 27.8509 20.9153 27.8179C21.0453 27.7849 21.1681 27.724 21.2766 27.6385C21.3852 27.5531 21.4773 27.4449 21.5479 27.3202L21.8237 26.8359H21.8384L23.125 24.53L28.9844 15.0323L30.0122 15.7561L30 15.7614ZM7.5 4.01435C8.09729 3.99964 8.69204 4.10447 9.25537 4.32377L8.8501 6.15336H8.70117C8.44083 6.00498 8.1697 5.88078 7.89062 5.78206C7.64789 5.7047 7.39623 5.66663 7.14355 5.66906C6.91456 5.6544 6.68616 5.70734 6.48193 5.82242C6.31465 5.95034 6.19635 6.14207 6.1499 6.36054C6.07056 6.7324 6.03608 7.11417 6.04736 7.49596C6.03615 7.88398 6.07062 8.27197 6.1499 8.65022C6.19607 8.8796 6.32237 9.0797 6.50146 9.20718C6.72399 9.32861 6.97133 9.38424 7.21924 9.36861C7.33624 9.36892 7.45304 9.35812 7.56836 9.33632V9.00538L7.5415 7.88072L9.25049 7.74619L9.22119 8.6556V10.4933C8.53038 10.7884 7.79657 10.9425 7.05566 10.948C6.0791 10.948 5.33773 10.6601 4.83154 10.0843C4.32536 9.50852 4.07389 8.68431 4.07715 7.61166C4.07715 6.43857 4.37256 5.54619 4.96338 4.93453C5.5542 4.32287 6.39974 4.01614 7.5 4.01435ZM12.4951 4.01435C13.0978 4.01618 13.6952 4.13927 14.2578 4.37758L13.9575 6.06188L13.6938 6.18834C13.448 6.0178 13.1871 5.87536 12.915 5.76323C12.7182 5.67491 12.5095 5.62309 12.2974 5.60987C12.1777 5.60241 12.0588 5.63425 11.9556 5.70135C11.9164 5.72655 11.8841 5.76274 11.8618 5.80623C11.8395 5.84971 11.828 5.89893 11.8286 5.94888C11.8309 6.01872 11.85 6.08664 11.8839 6.14571C11.9178 6.20479 11.9652 6.25292 12.0215 6.2852C12.2275 6.42434 12.442 6.54751 12.6636 6.65381C12.9589 6.79523 13.2466 6.95513 13.5254 7.13274C13.7584 7.28934 13.9595 7.49726 14.1162 7.7435C14.2878 8.02511 14.3733 8.35974 14.3604 8.69866C14.3638 9.10632 14.2539 9.50537 14.0454 9.84215C13.8191 10.1962 13.5093 10.4753 13.1494 10.6493C12.725 10.8581 12.264 10.961 11.7993 10.9507C11.1154 10.9412 10.4375 10.8086 9.79248 10.5578L10.0659 8.75785L10.2515 8.63408C10.5335 8.87277 10.8451 9.06576 11.1768 9.20718C11.4361 9.33258 11.7142 9.40462 11.9971 9.41973C12.13 9.43131 12.263 9.39749 12.3779 9.32287C12.4132 9.2949 12.442 9.25815 12.4619 9.2156C12.4819 9.17305 12.4924 9.12591 12.4927 9.07803C12.4906 9.00323 12.4711 8.93027 12.4361 8.86618C12.401 8.80209 12.3515 8.74903 12.2925 8.71211C12.0884 8.56856 11.8736 8.44434 11.6504 8.34081C11.3585 8.20364 11.0747 8.04638 10.8008 7.86996C10.5723 7.71502 10.3759 7.50874 10.2246 7.26457C10.0543 6.98233 9.96884 6.64815 9.98047 6.30942C9.97643 5.89165 10.088 5.48245 10.3003 5.13632C10.523 4.77488 10.8312 4.48739 11.1914 4.30493C11.6003 4.09929 12.0458 3.99724 12.4951 4.00628V4.01435ZM19.4287 4.28341L19.3262 5.79283L18.0884 5.73094H17.9761L17.9297 8.6556L18.0029 10.8242H16.1279L16.2231 8.86278L16.1743 5.73094H16.0522L14.8071 5.79283L14.6924 5.65022L14.7974 4.14081H19.3262L19.4287 4.2861V4.28341ZM11.8604 22.4179L11.7188 22.2565L9.69238 24.5516C9.68173 24.5675 9.67032 24.5827 9.6582 24.5973C9.6013 24.66 9.53374 24.7098 9.45938 24.7437C9.38503 24.7777 9.30534 24.7952 9.22485 24.7952C9.14437 24.7952 9.06468 24.7777 8.99032 24.7437C8.91597 24.7098 8.84841 24.66 8.7915 24.5973L6.66748 22.2565L4.47021 24.5543C4.35424 24.6751 4.20007 24.7413 4.04049 24.7388C3.88091 24.7363 3.72852 24.6652 3.61572 24.5408L1.53809 22.2215L1.10352 22.7596C1.02726 22.8721 0.921077 22.9556 0.799752 22.9985C0.678427 23.0414 0.54799 23.0415 0.42659 22.9989C0.30519 22.9563 0.198864 22.873 0.122406 22.7607C0.0459487 22.6484 0.00316223 22.5126 0 22.3722L0 0.675336C0 0.496226 0.0645619 0.324452 0.179483 0.197801C0.294404 0.0711513 0.45027 0 0.612793 0L22.9175 0C22.9978 -7.08461e-07 23.0774 0.0174865 23.1516 0.0514583C23.2258 0.08543 23.2932 0.135217 23.3499 0.197964C23.4066 0.26071 23.4515 0.33518 23.4821 0.4171C23.5126 0.49902 23.5282 0.586777 23.5278 0.675336V5.83587L23.2275 5.62332C23.0925 5.52688 22.9406 5.46269 22.7816 5.43489C22.6227 5.40708 22.4602 5.41628 22.3047 5.46188V1.34529H1.2207V20.6368C1.32929 20.5737 1.45261 20.5482 1.57456 20.5635C1.69651 20.5789 1.81142 20.6344 1.9043 20.7229C1.91606 20.7331 1.92671 20.7449 1.93604 20.7578H1.95312L4.06738 23.139L6.26465 20.8439C6.37833 20.7209 6.53131 20.6519 6.69067 20.6519C6.85003 20.6519 7.00302 20.7209 7.1167 20.8439L9.22363 23.1659L11.2622 20.852C11.3727 20.7253 11.5239 20.6514 11.6832 20.6464C11.8426 20.6414 11.9974 20.7056 12.1143 20.8251L12.5 21.2179L12.0117 22.009C11.94 22.1319 11.888 22.2675 11.8579 22.4099L11.8604 22.4179ZM14.6826 17.5749H4.67285C4.55306 17.5749 4.43818 17.5224 4.35348 17.4291C4.26878 17.3357 4.22119 17.2091 4.22119 17.0771C4.22119 16.9451 4.26878 16.8185 4.35348 16.7252C4.43818 16.6318 4.55306 16.5794 4.67285 16.5794H15.2808L14.6851 17.5749H14.6826ZM16.6724 14.2601H4.53857C4.41879 14.2601 4.30391 14.2076 4.2192 14.1143C4.1345 14.021 4.08691 13.8943 4.08691 13.7623C4.08691 13.6303 4.1345 13.5037 4.2192 13.4104C4.30391 13.317 4.41879 13.2646 4.53857 13.2646H17.2681L16.6724 14.2601ZM29.1992 12.6888L20.6543 26.9058L13.8379 22.1004L22.3828 7.86188L29.1968 12.678L29.1992 12.6888ZM22.9688 16.5659C23.1504 16.9136 23.2344 17.3128 23.2102 17.7131C23.186 18.1134 23.0546 18.4968 22.8327 18.8149C22.6108 19.1329 22.3083 19.3713 21.9635 19.4999C21.6186 19.6285 21.2469 19.6415 20.8954 19.5373C20.5439 19.4331 20.2282 19.2164 19.9884 18.9145C19.7486 18.6127 19.5954 18.2392 19.5482 17.8414C19.501 17.4436 19.5618 17.0393 19.7231 16.6796C19.8843 16.3199 20.1387 16.021 20.4541 15.8206C20.6635 15.6872 20.8948 15.6006 21.1346 15.5658C21.3745 15.531 21.6182 15.5488 21.8518 15.618C22.0854 15.6873 22.3043 15.8066 22.496 15.9693C22.6877 16.132 22.8483 16.3347 22.9688 16.5659ZM26.7578 14.3596L21.0278 23.7552C20.7603 23.5674 20.4361 23.5041 20.1263 23.5793C19.8165 23.6544 19.5463 23.8618 19.375 24.1561L16.6895 22.2538C16.7741 22.1079 16.8319 21.945 16.8595 21.7745C16.887 21.604 16.8838 21.4291 16.85 21.26C16.8163 21.0908 16.7526 20.9307 16.6626 20.7886C16.5726 20.6466 16.4581 20.5255 16.3257 20.4323L22.0483 11.0314C22.1804 11.1248 22.3279 11.1886 22.4823 11.2191C22.6368 11.2496 22.7952 11.2463 22.9484 11.2093C23.1017 11.1724 23.2469 11.1024 23.3756 11.0036C23.5044 10.9047 23.6142 10.7788 23.6987 10.6332L26.3965 12.5354C26.3117 12.6812 26.2537 12.8439 26.226 13.0143C26.1983 13.1847 26.2013 13.3595 26.2348 13.5287C26.2684 13.6978 26.3318 13.858 26.4216 14.0001C26.5113 14.1423 26.6256 14.2635 26.7578 14.357V14.3596Z" fill="#430303"/>
</g>
<defs>
<clipPath id="clip0_1385_1117">
<rect width="30" height="30" fill="white"/>
</clipPath>
</defs>
</svg>
