<svg width="30" height="30" viewBox="0 0 30 30" fill="none" xmlns="http://www.w3.org/2000/svg">
<path d="M4.80002 1.2002V3.6002H2.40002V28.8002H9.00002V23.4002H11.4V28.8002H18V3.6002H15.6V1.2002H4.80002ZM6.00002 6.0002H7.20002V7.2002H6.00002V6.0002ZM8.40002 6.0002H9.60002V7.2002H8.40002V6.0002ZM10.8 6.0002H12V7.2002H10.8V6.0002ZM13.2 6.0002H14.4V7.2002H13.2V6.0002ZM19.2 8.4002V10.8002H20.4V12.0002H19.2V13.2002H20.4V14.4002H19.2V15.6002H20.4V16.8002H19.2V18.0002H20.4V19.2002H19.2V20.4002H20.4V21.6002H19.2V22.8002H20.4V24.0002H19.2V25.2002H20.4V26.4002H19.2V28.8002H27.6V8.4002H19.2ZM6.00002 9.0002H7.20002V11.4002H6.00002V9.0002ZM8.40002 9.0002H9.60002V11.4002H8.40002V9.0002ZM10.8 9.0002H12V11.4002H10.8V9.0002ZM13.2 9.0002H14.4V11.4002H13.2V9.0002ZM21.6 10.8002H22.8V12.0002H21.6V10.8002ZM24 10.8002H25.2V12.0002H24V10.8002ZM6.00002 12.6002H7.20002V15.0002H6.00002V12.6002ZM8.40002 12.6002H9.60002V15.0002H8.40002V12.6002ZM10.8 12.6002H12V15.0002H10.8V12.6002ZM13.2 12.6002H14.4V15.0002H13.2V12.6002ZM21.6 13.2002H22.8V14.4002H21.6V13.2002ZM24 13.2002H25.2V14.4002H24V13.2002ZM21.6 15.6002H22.8V16.8002H21.6V15.6002ZM24 15.6002H25.2V16.8002H24V15.6002ZM6.00002 16.2002H7.20002V18.6002H6.00002V16.2002ZM8.40002 16.2002H9.60002V18.6002H8.40002V16.2002ZM10.8 16.2002H12V18.6002H10.8V16.2002ZM13.2 16.2002H14.4V18.6002H13.2V16.2002ZM21.6 18.0002H22.8V19.2002H21.6V18.0002ZM24 18.0002H25.2V19.2002H24V18.0002ZM6.00002 19.8002H7.20002V22.2002H6.00002V19.8002ZM8.40002 19.8002H9.60002V22.2002H8.40002V19.8002ZM10.8 19.8002H12V22.2002H10.8V19.8002ZM13.2 19.8002H14.4V22.2002H13.2V19.8002ZM21.6 20.4002H22.8V21.6002H21.6V20.4002ZM24 20.4002H25.2V21.6002H24V20.4002ZM21.6 22.8002H22.8V24.0002H21.6V22.8002ZM24 22.8002H25.2V24.0002H24V22.8002ZM6.00002 23.4002H7.20002V26.4002H6.00002V23.4002ZM13.2 23.4002H14.4V26.4002H13.2V23.4002ZM21.6 25.2002H22.8V26.4002H21.6V25.2002ZM24 25.2002H25.2V26.4002H24V25.2002Z" fill="#430303"/>
</svg>
