<svg width="30" height="30" viewBox="0 0 30 30" fill="none" xmlns="http://www.w3.org/2000/svg">
<path d="M30 7.7793H8.125V10.2793H30V7.7793Z" fill="#241F20"/>
<path d="M2.47563 8.32516L1.32563 7.17516L0 8.50141L1.15 9.65141L1.1475 9.65391L2.47375 10.9795L6.93563 6.51766L5.61 5.19141L2.47563 8.32516Z" fill="#241F20"/>
<path d="M30 14.6943H8.125V17.1943H30V14.6943Z" fill="#241F20"/>
<path d="M2.47625 15.2392L1.32563 14.0892L0 15.4155L1.15 16.5655L1.1475 16.568L2.47375 17.8936L6.93563 13.4311L5.61 12.1055L2.47625 15.2392Z" fill="#241F20"/>
<path d="M30 21.6084H8.125V24.1084H30V21.6084Z" fill="#241F20"/>
<path d="M2.47563 22.1527L1.32563 21.0039L0 22.3302L1.15 23.4795L1.1475 23.482L2.47375 24.8077L6.93563 20.3464L5.61 19.0195L2.47563 22.1527Z" fill="#241F20"/>
</svg>
