<svg width="30" height="30" viewBox="0 0 30 30" fill="none" xmlns="http://www.w3.org/2000/svg">
<path fill-rule="evenodd" clip-rule="evenodd" d="M0 26.5555H3.59375V0.41663C3.59375 0.188412 3.76709 0 3.97705 0H16.1499C16.3599 0 16.5332 0.188412 16.5332 0.41663V10.2167H27.3047C27.5146 10.2167 27.688 10.4051 27.688 10.6333V26.5529H30V30H0V26.5555ZM6.66992 3.93277H9.16016C9.23584 3.93277 9.29932 4.00177 9.29932 4.08403V7.364C9.29932 7.44626 9.23584 7.51526 9.16016 7.51526H6.66992C6.59424 7.51526 6.53076 7.44626 6.53076 7.364V4.08403C6.53076 4.00177 6.59424 3.93277 6.66992 3.93277ZM10.8887 20.2477H13.3789C13.4546 20.2477 13.5181 20.3167 13.5181 20.3989V23.6789C13.5181 23.7612 13.4546 23.8302 13.3789 23.8302H10.8887C10.813 23.8302 10.7495 23.7612 10.7495 23.6789V20.3989C10.7495 20.314 10.813 20.2477 10.8887 20.2477ZM6.66992 20.2477H9.16016C9.23584 20.2477 9.29932 20.3167 9.29932 20.3989V23.6789C9.29932 23.7612 9.23584 23.8302 9.16016 23.8302H6.66992C6.59424 23.8302 6.53076 23.7612 6.53076 23.6789V20.3989C6.53076 20.314 6.59424 20.2477 6.66992 20.2477ZM10.8887 14.8076H13.3789C13.4546 14.8076 13.5181 14.8766 13.5181 14.9589V18.2388C13.5181 18.3211 13.4546 18.3901 13.3789 18.3901H10.8887C10.813 18.3901 10.7495 18.3211 10.7495 18.2388V14.9615C10.7495 14.8766 10.813 14.8076 10.8887 14.8076ZM6.66992 14.8076H9.16016C9.23584 14.8076 9.29932 14.8766 9.29932 14.9589V18.2388C9.29932 18.3211 9.23584 18.3901 9.16016 18.3901H6.66992C6.59424 18.3901 6.53076 18.3211 6.53076 18.2388V14.9615C6.53076 14.8766 6.59424 14.8076 6.66992 14.8076ZM10.8887 9.37019H13.3789C13.4546 9.37019 13.5181 9.43919 13.5181 9.52145V12.8014C13.5181 12.8837 13.4546 12.9527 13.3789 12.9527H10.8887C10.813 12.9527 10.7495 12.8837 10.7495 12.8014V9.52145C10.7495 9.43919 10.813 9.37019 10.8887 9.37019ZM6.66992 9.37019H9.16016C9.23584 9.37019 9.29932 9.43919 9.29932 9.52145V12.8014C9.29932 12.8837 9.23584 12.9527 9.16016 12.9527H6.66992C6.59424 12.9527 6.53076 12.8837 6.53076 12.8014V9.52145C6.53076 9.43919 6.59424 9.37019 6.66992 9.37019ZM10.8887 3.93277H13.3789C13.4546 3.93277 13.5181 4.00177 13.5181 4.08403V7.364C13.5181 7.44626 13.4546 7.51526 13.3789 7.51526H10.8887C10.813 7.51526 10.7495 7.44626 10.7495 7.364V4.08403C10.7495 4.00177 10.813 3.93277 10.8887 3.93277ZM5.65674 1.9425H14.4263C14.5776 1.9425 14.7021 2.10438 14.7021 2.30075V25.088C14.7021 25.2844 14.5776 25.4463 14.4263 25.4463H5.65674C5.50537 25.4463 5.38086 25.2844 5.38086 25.088V2.30075C5.38086 2.10438 5.50537 1.9425 5.65674 1.9425ZM17.7271 14.1787H20.2173C20.293 14.1787 20.3564 14.2477 20.3564 14.3299V17.6099C20.3564 17.6922 20.293 17.7612 20.2173 17.7612H17.7271C17.6514 17.7612 17.5879 17.6922 17.5879 17.6099V14.3299C17.5879 14.2477 17.6514 14.1787 17.7271 14.1787ZM21.9458 20.2477H24.436C24.5117 20.2477 24.5752 20.3167 24.5752 20.3989V23.6789C24.5752 23.7612 24.5117 23.8302 24.436 23.8302H21.9458C21.8701 23.8302 21.8066 23.7612 21.8066 23.6789V20.3989C21.8066 20.314 21.8701 20.2477 21.9458 20.2477ZM17.7271 20.2477H20.2173C20.293 20.2477 20.3564 20.3167 20.3564 20.3989V23.6789C20.3564 23.7612 20.293 23.8302 20.2173 23.8302H17.7271C17.6514 23.8302 17.5879 23.7612 17.5879 23.6789V20.3989C17.5879 20.314 17.6514 20.2477 17.7271 20.2477ZM21.9458 14.1787H24.436C24.5117 14.1787 24.5752 14.2477 24.5752 14.3299V17.6099C24.5752 17.6922 24.5117 17.7612 24.436 17.7612H21.9458C21.8701 17.7612 21.8066 17.6922 21.8066 17.6099V14.3299C21.8066 14.2477 21.8701 14.1787 21.9458 14.1787ZM16.8115 12.1592H25.5811C25.7324 12.1592 25.8569 12.3211 25.8569 12.5175V25.088C25.8569 25.2844 25.7324 25.4463 25.5811 25.4463H16.8115C16.6602 25.4463 16.5356 25.2844 16.5356 25.088V12.5175C16.5356 12.3211 16.6602 12.1592 16.8115 12.1592Z" fill="#430303"/>
</svg>
