<svg width="31" height="30" viewBox="0 0 31 30" fill="none" xmlns="http://www.w3.org/2000/svg">
<g clip-path="url(#clip0_1426_1196)">
<path d="M19.4951 14.6667C19.6416 14.377 19.7754 14.073 19.8956 13.7529C20.0163 13.4314 20.1215 13.096 20.2098 12.7452C20.2963 12.4043 20.3604 12.0546 20.4034 11.6957C20.446 11.339 20.467 10.9701 20.467 10.5897C20.467 9.95374 20.4059 9.34227 20.2827 8.75578C20.16 8.17325 19.975 7.6063 19.7264 7.05543C19.721 7.04282 19.7155 7.03045 19.7108 7.01759C19.4637 6.47117 19.1746 5.96037 18.8431 5.48569C18.5077 5.00557 18.1248 4.55735 17.6939 4.14253L17.6887 4.13733C17.2612 3.72152 16.7972 3.35098 16.2968 3.02471C15.7939 2.69696 15.25 2.41126 14.6652 2.16662C14.0893 1.92767 13.4925 1.74759 12.8743 1.62688C12.2586 1.50691 11.6195 1.44631 10.957 1.44631C10.2941 1.44631 9.65493 1.50691 9.0395 1.62688C8.42135 1.74759 7.82447 1.92767 7.24862 2.16662C6.66411 2.41101 6.1214 2.69696 5.61902 3.02471C5.11787 3.35147 4.65283 3.72301 4.22243 4.13981C3.79103 4.55785 3.40564 5.00878 3.068 5.49212C2.7306 5.97521 2.43674 6.49566 2.1874 7.05296C1.94078 7.60383 1.75502 8.17424 1.63109 8.7637C1.50815 9.34796 1.44631 9.95696 1.44631 10.59C1.44631 11.2331 1.50815 11.8493 1.63109 12.438C1.75526 13.0326 1.94078 13.6058 2.1874 14.1561C2.43674 14.7129 2.7306 15.2334 3.068 15.7165C3.40564 16.2001 3.79078 16.6508 4.22243 17.0693C4.65258 17.4858 5.11787 17.8574 5.61902 18.1844C6.1214 18.5119 6.66436 18.7978 7.24862 19.0425C7.82447 19.2812 8.42135 19.4613 9.0395 19.5822C9.65518 19.7024 10.2941 19.7628 10.957 19.7628C11.4676 19.7628 11.9626 19.7262 12.4412 19.6542C12.9285 19.5807 13.3995 19.4721 13.8541 19.3287C14.3122 19.1842 14.7515 19.0123 15.1728 18.8117C15.5921 18.6126 15.995 18.3845 16.3821 18.128C16.7146 17.9081 17.1623 17.9991 17.3822 18.3313C17.427 18.3988 17.4586 18.4708 17.4784 18.5448L18.358 21.3741H21.3884C21.7877 21.3741 22.1115 21.6984 22.1115 22.0974V25.1327H25.1518C25.5512 25.1327 25.875 25.4565 25.875 25.856V28.5537H28.9497V25.0202L19.605 15.5344C19.372 15.2977 19.3361 14.9405 19.4951 14.6667ZM21.2462 14.2615C21.1678 14.4703 21.0817 14.6776 20.9884 14.8836L30.1482 24.1824C30.2998 24.3147 30.3955 24.5099 30.3955 24.7268V29.277C30.3955 29.676 30.0717 30.0002 29.6722 30.0002H25.1515C24.7523 30.0002 24.4282 29.676 24.4282 29.277V26.5793H21.3882C20.9887 26.5793 20.6649 26.2555 20.6649 25.856V22.8204H17.8274V22.8184C17.519 22.8189 17.2333 22.6193 17.1381 22.3091L16.3648 19.8224C16.1761 19.9253 15.9841 20.0237 15.7887 20.1165C15.3064 20.3456 14.8047 20.5427 14.2835 20.707C13.7539 20.8737 13.2115 20.9998 12.6559 21.0832C12.1023 21.1663 11.5359 21.2088 10.9568 21.2088C10.2056 21.2088 9.47436 21.1388 8.76221 20.9996C8.05229 20.8608 7.3634 20.6528 6.69454 20.3755C6.03409 20.0992 5.41396 19.7722 4.8334 19.3927C4.25137 19.013 3.71262 18.5836 3.21666 18.1028C2.72516 17.6263 2.2814 17.1056 1.88711 16.5412C1.49529 15.9802 1.15591 15.3803 0.870953 14.7431C0.581295 14.0965 0.363618 13.4254 0.218666 12.7316C0.0732184 12.0348 0 11.3204 0 10.59C0 9.86865 0.0732184 9.1617 0.218666 8.47008C0.363618 7.78094 0.581295 7.11233 0.870953 6.46548C1.15616 5.82828 1.49529 5.22868 1.88711 4.66743C2.2814 4.10295 2.72516 3.58201 3.21666 3.10585C3.71262 2.62523 4.25137 2.19556 4.8334 1.81587C5.4142 1.43691 6.03409 1.1099 6.69454 0.833354C7.3634 0.555817 8.05254 0.34754 8.76221 0.209019C9.47461 0.0697554 10.2058 0 10.9568 0C11.7075 0 12.439 0.0697554 13.1511 0.209019C13.8608 0.34754 14.5502 0.556064 15.219 0.833354C15.8792 1.10965 16.5006 1.43666 17.0819 1.81587C17.6627 2.19457 18.1997 2.6225 18.6915 3.1009L18.6939 3.10312C19.1877 3.5788 19.6307 4.09825 20.0237 4.66124C20.4094 5.21285 20.7426 5.80157 21.0253 6.42665C21.0315 6.43827 21.0374 6.45039 21.0429 6.46276C21.3328 7.10491 21.55 7.77179 21.6952 8.46241C21.8411 9.15675 21.9136 9.86618 21.9136 10.5902C21.9136 11.0204 21.8888 11.4456 21.8384 11.8656C21.7887 12.2834 21.713 12.6937 21.6111 13.096C21.5114 13.4927 21.3892 13.8811 21.2462 14.2615ZM9.4803 6.07391C9.91441 6.07391 10.3231 6.15257 10.7062 6.31014C11.0904 6.46796 11.4347 6.69973 11.7397 7.00448C12.0449 7.30947 12.2764 7.65429 12.4343 8.03819C12.5916 8.4211 12.6705 8.82974 12.6705 9.26411C12.6705 9.6955 12.5916 10.1029 12.4338 10.4851C12.2777 10.8638 12.0462 11.2071 11.7397 11.5143L11.7382 11.5156L11.737 11.5171L11.7365 11.5176C11.4295 11.8243 11.0862 12.0556 10.7065 12.2116C10.3235 12.3692 9.91466 12.4479 9.48055 12.4479C9.04618 12.4479 8.63952 12.369 8.26181 12.2114C7.88434 12.0538 7.54397 11.8196 7.24145 11.5086C6.94091 11.1994 6.71309 10.8556 6.56022 10.4784C6.40735 10.1007 6.32968 9.6955 6.32968 9.26411C6.32968 8.83172 6.4071 8.42605 6.55997 8.04784C6.71383 7.66641 6.9419 7.32134 7.24145 7.01313C7.54422 6.7022 7.88483 6.46795 8.26205 6.31063C8.63928 6.15282 9.04593 6.07391 9.4803 6.07391ZM10.1578 7.64365C9.9582 7.56153 9.73211 7.52047 9.48005 7.52047C9.23418 7.52047 9.01229 7.56153 8.81515 7.6439C8.6185 7.72603 8.43817 7.85094 8.27467 8.01865C8.10671 8.1918 7.98056 8.38029 7.89843 8.58461C7.81681 8.7867 7.77525 9.01304 7.77525 9.26435C7.77525 9.51023 7.81681 9.73434 7.89868 9.93618C7.98229 10.1422 8.10795 10.3315 8.27491 10.5031C8.43842 10.6711 8.61874 10.7963 8.8154 10.8781C9.01254 10.9605 9.23442 11.0016 9.4803 11.0016C9.7326 11.0016 9.95844 10.9605 10.1583 10.8784C10.3599 10.7955 10.5462 10.6684 10.7171 10.4974L10.7198 10.4947C10.8907 10.3238 11.0179 10.1378 11.1005 9.93717C11.1829 9.7378 11.2242 9.5132 11.2242 9.26435C11.2242 9.01205 11.1829 8.78621 11.101 8.58659C11.0194 8.38796 10.8912 8.20145 10.7171 8.02756C10.543 7.85317 10.3567 7.72528 10.1578 7.64365Z" fill="#430303"/>
</g>
<defs>
<clipPath id="clip0_1426_1196">
<rect width="30.3955" height="30" fill="white"/>
</clipPath>
</defs>
</svg>
