<svg width="21" height="30" viewBox="0 0 21 30" fill="none" xmlns="http://www.w3.org/2000/svg">
<g clip-path="url(#clip0_1426_1204)">
<path fill-rule="evenodd" clip-rule="evenodd" d="M14.7632 21.8872L15.7129 17.0557L16.6772 18.5083C18.7524 17.6758 19.9194 16.3013 20.0928 14.1846C21.7969 17.1655 20.7617 19.8389 18.6011 21.4038L19.585 22.8857L14.7632 21.8872ZM2.37793 19.0063L1.52832 23.8232C1.51611 23.8892 1.48926 23.9502 1.44775 23.9966C1.14502 24.3872 0.95459 24.7241 0.898438 24.9951C0.859375 25.1953 0.898438 25.3564 1.03271 25.4834L4.35547 28.8062C4.56543 29.0088 4.81201 29.1357 5.10498 29.1895C5.4248 29.2505 5.79834 29.2163 6.22803 29.0991C6.23535 29.0991 6.24512 29.0967 6.25244 29.0967C6.41602 29.0527 6.62842 28.999 6.8335 28.9502C7.72461 28.7329 8.50098 28.5425 9.22119 27.8906L10.1489 26.9238C10.1587 26.9067 10.1733 26.8945 10.1855 26.8799C10.1978 26.8677 10.2881 26.7773 10.4126 26.6602C11.0474 26.04 11.8311 25.2759 11.3525 24.6045L10.9814 24.2334C10.8008 24.4067 10.6104 24.5776 10.4272 24.7412C10.2612 24.8877 10.1025 25.0244 9.96094 25.1685C9.80713 25.3223 9.56055 25.3223 9.40674 25.1685C9.25293 25.0146 9.25293 24.7681 9.40674 24.6143C9.55078 24.4702 9.72656 24.314 9.90967 24.1504C10.5371 23.5962 11.2573 22.9639 10.8691 22.4097L10.5029 22.0435C10.4834 22.0239 10.4663 21.9995 10.4492 21.9775C10.2393 22.1948 10.0049 22.4023 9.77783 22.6001C9.61182 22.7466 9.45312 22.8833 9.31152 23.0273C9.15771 23.1812 8.91113 23.1812 8.75732 23.0273C8.60352 22.8735 8.60352 22.627 8.75732 22.4731C8.90137 22.3291 9.07715 22.1729 9.26025 22.0093C9.8877 21.4551 10.6079 20.8228 10.2222 20.2686L9.85596 19.9023C9.8291 19.8755 9.80957 19.8486 9.79248 19.8193L8.71582 20.896C8.56201 21.0498 8.31543 21.0498 8.16162 20.896C8.00781 20.7422 8.00781 20.4956 8.16162 20.3418L10.1807 18.3228C10.6641 17.8394 10.7739 17.3364 10.647 16.9556C10.6006 16.8164 10.5225 16.6919 10.4272 16.5942C10.3784 16.5454 10.3198 16.499 10.2588 16.4624H10.2563C10.2271 16.4771 10.2051 16.4453 10.1758 16.4185C10.1416 16.4014 10.105 16.3867 10.0659 16.3745C9.729 16.2646 9.29688 16.3428 8.85254 16.7139C8.84766 16.7212 8.84033 16.7261 8.83301 16.7285C8.78418 16.77 8.73779 16.814 8.68896 16.8604L4.50195 21.0522C4.34814 21.2061 4.10156 21.2061 3.94775 21.0522C3.80859 20.9131 3.79639 20.6934 3.91113 20.5396L2.37793 19.0063ZM5.03174 19.4141L5.16602 19.2798L7.93213 16.5137C7.64648 16.3818 7.37793 16.1938 7.14355 15.9595C6.09131 14.9072 6.09131 13.2056 7.14355 12.1533C8.1958 11.1011 9.89746 11.1011 10.9497 12.1533C12.002 13.2056 12.002 14.9072 10.9497 15.9595C10.9399 15.9692 10.9326 15.9766 10.9229 15.9863C10.9448 16.0059 10.9644 16.0254 10.9839 16.0449C11.0693 16.1304 11.145 16.2256 11.2109 16.3257L14.6411 12.8955C14.1138 12.3682 14.1138 11.5112 14.6411 10.9839L12.085 8.42529C11.5576 8.95264 10.7007 8.95264 10.1733 8.42529L3.06396 15.5347C3.59131 16.062 3.59131 16.9189 3.06396 17.4463L5.03174 19.4141ZM11.062 18.5034C10.9692 18.6328 10.8618 18.7598 10.7373 18.8843L10.3345 19.2871L10.332 19.2773C10.3613 19.2944 10.3882 19.314 10.415 19.3408L10.7983 19.7241C10.8179 19.7437 10.8374 19.7705 10.8545 19.7949C11.2842 20.3857 11.2183 20.9131 10.9253 21.3916C10.979 21.4111 11.0278 21.4404 11.0693 21.4819L11.4526 21.8652C11.4722 21.8848 11.4917 21.9116 11.5088 21.936C11.9727 22.5732 11.8555 23.1299 11.5088 23.6377C11.5259 23.6475 11.5381 23.6621 11.5552 23.6768L11.9385 24.0601C11.958 24.0796 11.9775 24.1064 11.9946 24.1309C12.8857 25.3491 11.8237 26.3818 10.9717 27.2168L10.752 27.4365L9.80225 28.4351L9.77295 28.4644C8.90137 29.2554 8.03711 29.4653 7.04102 29.7095C6.875 29.7485 6.7041 29.7925 6.46973 29.8535C6.4624 29.8535 6.45996 29.856 6.45264 29.856C5.91309 30.0024 5.42236 30.0391 4.98047 29.9585C4.53369 29.8779 4.14551 29.6777 3.82324 29.3604L0.505371 26.0425C0.168457 25.7178 0.0561523 25.3174 0.148926 24.8438C0.222168 24.4629 0.441895 24.043 0.788574 23.5889L1.6748 18.5645V18.5449C1.68457 18.4839 1.69678 18.4131 1.70898 18.3398L0 16.6309L11.2793 5.35156L17.7466 11.8188L11.062 18.5034ZM8.75244 0.998535L7.80273 5.83008L6.83838 4.37744C4.76318 5.20996 3.59619 6.58447 3.42285 8.69873C1.71631 5.71777 2.75391 3.04443 4.91455 1.47949L3.93066 0L8.75244 0.998535Z" fill="#430303"/>
</g>
<defs>
<clipPath id="clip0_1426_1204">
<rect width="20.9448" height="30" fill="white"/>
</clipPath>
</defs>
</svg>
