<svg width="30" height="30" viewBox="0 0 30 30" fill="none" xmlns="http://www.w3.org/2000/svg">
<path d="M19.9243 1.15479C19.9243 0.517578 20.5542 0 21.333 0C22.1118 0 22.7417 0.517578 22.7417 1.15479V6.21338C22.7417 6.85059 22.1118 7.36816 21.333 7.36816C20.5542 7.36816 19.9243 6.85059 19.9243 6.21338V1.15479ZM16.1401 25.3442C16.0571 25.3442 15.9912 24.9951 15.9912 24.563C15.9912 24.1309 16.0571 23.7817 16.1401 23.7817H19.9951C20.0781 23.7817 20.144 24.1309 20.144 24.563C20.144 24.9951 20.0781 25.3442 19.9951 25.3442H16.1401ZM3.86963 16.3794C3.78662 16.3794 3.7207 16.0303 3.7207 15.5981C3.7207 15.166 3.78662 14.8169 3.86963 14.8169H7.72461C7.80762 14.8169 7.87354 15.166 7.87354 15.5981C7.87354 16.0303 7.80762 16.3794 7.72461 16.3794H3.86963ZM10.0049 16.3794C9.92188 16.3794 9.85596 16.0303 9.85596 15.5981C9.85596 15.166 9.92188 14.8169 10.0049 14.8169H13.8599C13.9429 14.8169 14.0088 15.166 14.0088 15.5981C14.0088 16.0303 13.9429 16.3794 13.8599 16.3794H10.0049ZM16.1401 16.3794C16.0571 16.3794 15.9912 16.0303 15.9912 15.5981C15.9912 15.166 16.0571 14.8169 16.1401 14.8169H19.9951C20.0781 14.8169 20.144 15.166 20.144 15.5981C20.144 16.0303 20.0781 16.3794 19.9951 16.3794H16.1401ZM22.2778 16.3794C22.1948 16.3794 22.1289 16.0303 22.1289 15.5981C22.1289 15.166 22.1948 14.8169 22.2778 14.8169H26.1328C26.2158 14.8169 26.2817 15.166 26.2817 15.5981C26.2817 16.0303 26.2158 16.3794 26.1328 16.3794H22.2778ZM3.86963 20.8618C3.78662 20.8618 3.7207 20.5127 3.7207 20.0806C3.7207 19.6484 3.78662 19.2993 3.86963 19.2993H7.72461C7.80762 19.2993 7.87354 19.6484 7.87354 20.0806C7.87354 20.5127 7.80762 20.8618 7.72461 20.8618H3.86963ZM10.0049 20.8618C9.92188 20.8618 9.85596 20.5127 9.85596 20.0806C9.85596 19.6484 9.92188 19.2993 10.0049 19.2993H13.8599C13.9429 19.2993 14.0088 19.6484 14.0088 20.0806C14.0088 20.5127 13.9429 20.8618 13.8599 20.8618H10.0049ZM16.1401 20.8618C16.0571 20.8618 15.9912 20.5127 15.9912 20.0806C15.9912 19.6484 16.0571 19.2993 16.1401 19.2993H19.9951C20.0781 19.2993 20.144 19.6484 20.144 20.0806C20.144 20.5127 20.0781 20.8618 19.9951 20.8618H16.1401ZM22.2778 20.8618C22.1948 20.8618 22.1289 20.5127 22.1289 20.0806C22.1289 19.6484 22.1948 19.2993 22.2778 19.2993H26.1328C26.2158 19.2993 26.2817 19.6484 26.2817 20.0806C26.2817 20.5127 26.2158 20.8618 26.1328 20.8618H22.2778ZM3.86963 25.3442C3.78662 25.3442 3.7207 24.9951 3.7207 24.563C3.7207 24.1309 3.78662 23.7817 3.86963 23.7817H7.72461C7.80762 23.7817 7.87354 24.1309 7.87354 24.563C7.87354 24.9951 7.80762 25.3442 7.72461 25.3442H3.86963ZM10.0049 25.3442C9.92188 25.3442 9.85596 24.9951 9.85596 24.563C9.85596 24.1309 9.92188 23.7817 10.0049 23.7817H13.8599C13.9429 23.7817 14.0088 24.1309 14.0088 24.563C14.0088 24.9951 13.9429 25.3442 13.8599 25.3442H10.0049ZM7.229 1.15479C7.229 0.517578 7.85889 0 8.6377 0C9.4165 0 10.0464 0.517578 10.0464 1.15479V6.21338C10.0464 6.85059 9.4165 7.36816 8.6377 7.36816C7.85889 7.36816 7.229 6.85059 7.229 6.21338V1.15479ZM1.5625 11.0645H28.4351V5.2417C28.4351 5.04639 28.3545 4.86816 28.2251 4.73633C28.0957 4.60693 27.9175 4.52637 27.7197 4.52637H25.1465C24.7144 4.52637 24.3652 4.17725 24.3652 3.74512C24.3652 3.31299 24.7144 2.96387 25.1465 2.96387H27.7222C28.3496 2.96387 28.9185 3.22021 29.3311 3.63281C29.7437 4.04541 30 4.61426 30 5.2417V11.8481V27.7246C30 28.3521 29.7437 28.9209 29.3311 29.3335C28.9185 29.7461 28.3496 30.0024 27.7222 30.0024H2.27783C1.65039 30.0024 1.08154 29.7461 0.668945 29.3335C0.256348 28.9185 0 28.3496 0 27.7222V11.8457V5.2417C0 4.61426 0.256348 4.04541 0.668945 3.63281C1.08154 3.22021 1.65039 2.96387 2.27783 2.96387H5.0293C5.46143 2.96387 5.81055 3.31299 5.81055 3.74512C5.81055 4.17725 5.46143 4.52637 5.0293 4.52637H2.27783C2.08252 4.52637 1.9043 4.60693 1.77246 4.73633C1.64307 4.86572 1.5625 5.04395 1.5625 5.2417V11.0645ZM28.4375 12.6294H1.5625V27.7222C1.5625 27.9175 1.64307 28.0957 1.77246 28.2275C1.90186 28.3569 2.08008 28.4375 2.27783 28.4375H27.7222C27.9175 28.4375 28.0957 28.3569 28.2275 28.2275C28.3569 28.0981 28.4375 27.9199 28.4375 27.7222V12.6294ZM12.312 4.52637C11.8799 4.52637 11.5308 4.17725 11.5308 3.74512C11.5308 3.31299 11.8799 2.96387 12.312 2.96387H17.5586C17.9907 2.96387 18.3398 3.31299 18.3398 3.74512C18.3398 4.17725 17.9907 4.52637 17.5586 4.52637H12.312Z" fill="#430303"/>
</svg>
