<svg width="28" height="32" viewBox="0 0 28 32" fill="none" xmlns="http://www.w3.org/2000/svg">
<path d="M5.91663 9.10387V8.36736C5.91663 5.32733 5.91663 3.80734 6.89356 2.96004C7.87048 2.11276 9.37522 2.32773 12.3847 2.75764L18.452 3.62442C21.9316 4.12148 23.6713 4.37002 24.7107 5.56837C25.75 6.76671 25.75 8.52414 25.75 12.039V19.9616C25.75 23.4765 25.75 25.2339 24.7107 26.4322C23.6713 27.6306 21.9316 27.8791 18.452 28.3762L12.3847 29.243C9.37522 29.6728 7.87048 29.8879 6.89356 29.0406C5.91663 28.1933 5.91663 26.6733 5.91663 23.6333V23.1771" stroke="white" stroke-width="3"/>
<path d="M18.6667 16.0006L19.7729 15.1156L20.4809 16.0006L19.7729 16.8855L18.6667 16.0006ZM1.66667 17.4172C0.884256 17.4172 0.25 16.783 0.25 16.0006C0.25 15.2181 0.884256 14.5839 1.66667 14.5839V17.4172ZM14.1063 8.03223L19.7729 15.1156L17.5604 16.8855L11.8937 9.80221L14.1063 8.03223ZM19.7729 16.8855L14.1063 23.9689L11.8937 22.1989L17.5604 15.1156L19.7729 16.8855ZM18.6667 17.4172H1.66667V14.5839H18.6667V17.4172Z" fill="white"/>
</svg>
