<svg width="36" height="36" viewBox="0 0 36 36" fill="none" xmlns="http://www.w3.org/2000/svg">
<path d="M17.982 0C8.046 0 0 8.064 0 18C0 27.936 8.046 36 17.982 36C27.936 36 36 27.936 36 18C36 8.064 27.936 0 17.982 0ZM30.456 10.8H25.146C24.57 8.55 23.742 6.39 22.662 4.392C25.974 5.526 28.728 7.83 30.456 10.8ZM18 3.672C19.494 5.832 20.664 8.226 21.438 10.8H14.562C15.336 8.226 16.506 5.832 18 3.672ZM4.068 21.6C3.78 20.448 3.6 19.242 3.6 18C3.6 16.758 3.78 15.552 4.068 14.4H10.152C10.008 15.588 9.9 16.776 9.9 18C9.9 19.224 10.008 20.412 10.152 21.6H4.068ZM5.544 25.2H10.854C11.43 27.45 12.258 29.61 13.338 31.608C10.026 30.474 7.272 28.188 5.544 25.2ZM10.854 10.8H5.544C7.272 7.812 10.026 5.526 13.338 4.392C12.258 6.39 11.43 8.55 10.854 10.8ZM18 32.328C16.506 30.168 15.336 27.774 14.562 25.2H21.438C20.664 27.774 19.494 30.168 18 32.328ZM22.212 21.6H13.788C13.626 20.412 13.5 19.224 13.5 18C13.5 16.776 13.626 15.57 13.788 14.4H22.212C22.374 15.57 22.5 16.776 22.5 18C22.5 19.224 22.374 20.412 22.212 21.6ZM22.662 31.608C23.742 29.61 24.57 27.45 25.146 25.2H30.456C28.728 28.17 25.974 30.474 22.662 31.608ZM25.848 21.6C25.992 20.412 26.1 19.224 26.1 18C26.1 16.776 25.992 15.588 25.848 14.4H31.932C32.22 15.552 32.4 16.758 32.4 18C32.4 19.242 32.22 20.448 31.932 21.6H25.848Z" fill="#430303"/>
</svg>
