<svg width="61" height="60" viewBox="0 0 61 60" fill="none" xmlns="http://www.w3.org/2000/svg">
<path opacity="0.3" d="M60.0176 30C60.0176 46.5684 46.586 60 30.0176 60C13.449 60 0.0175781 46.5684 0.0175781 30C0.0175781 13.4314 13.449 0 30.0176 0C46.586 0 60.0176 13.4314 60.0176 30Z" fill="#E6BD2B"/>
<path d="M44.5479 44.0736C40.4463 46.8912 35.4792 48.54 30.1269 48.54C24.7746 48.54 19.8076 46.8909 15.7059 44.0733C13.8944 42.8289 13.1202 40.4586 14.1735 38.5296C16.357 34.5306 20.8561 32.04 30.1269 32.04C39.3978 32.04 43.897 34.5309 46.0804 38.5296C47.1337 40.4586 46.3593 42.8292 44.5479 44.0736Z" fill="#E6BD2B"/>
<path d="M30.1268 29.2793C35.0975 29.2793 39.1268 25.25 39.1268 20.2793C39.1268 15.3087 35.0975 11.2793 30.1268 11.2793C25.1564 11.2793 21.127 15.3087 21.127 20.2793C21.127 25.25 25.1564 29.2793 30.1268 29.2793Z" fill="#E6BD2B"/>
</svg>
