<svg width="36" height="36" viewBox="0 0 36 36" fill="none" xmlns="http://www.w3.org/2000/svg">
<path d="M30.8963 19.7625C30.9713 19.2 31.0088 18.6187 31.0088 18C31.0088 17.4 30.9713 16.8 30.8775 16.2375L34.6838 13.275C35.0213 13.0125 35.115 12.5062 34.9088 12.1312L31.3088 5.90625C31.0838 5.49375 30.615 5.3625 30.2025 5.49375L25.7212 7.29375C24.7837 6.58125 23.79 5.98125 22.6838 5.53125L22.0087 0.76875C21.9338 0.31875 21.5588 0 21.1088 0H13.9088C13.4588 0 13.1025 0.31875 13.0275 0.76875L12.3525 5.53125C11.2463 5.98125 10.2338 6.6 9.315 7.29375L4.83375 5.49375C4.42125 5.34375 3.9525 5.49375 3.7275 5.90625L0.146251 12.1312C-0.0787494 12.525 -0.00374956 13.0125 0.37125 13.275L4.1775 16.2375C4.08375 16.8 4.00875 17.4187 4.00875 18C4.00875 18.5812 4.04625 19.2 4.14 19.7625L0.33375 22.725C-0.00374953 22.9875 -0.0974993 23.4937 0.108751 23.8687L3.70875 30.0938C3.93375 30.5063 4.4025 30.6375 4.815 30.5062L9.29625 28.7062C10.2338 29.4187 11.2275 30.0187 12.3337 30.4687L13.0088 35.2313C13.1025 35.6812 13.4588 36 13.9088 36H21.1088C21.5588 36 21.9338 35.6812 21.99 35.2313L22.665 30.4687C23.7712 30.0187 24.7838 29.4187 25.7025 28.7062L30.1838 30.5062C30.5963 30.6562 31.065 30.5063 31.29 30.0938L34.89 23.8687C35.115 23.4562 35.0213 22.9875 34.665 22.725L30.8963 19.7625ZM17.5088 24.75C13.7963 24.75 10.7587 21.7125 10.7587 18C10.7587 14.2875 13.7963 11.25 17.5088 11.25C21.2213 11.25 24.2588 14.2875 24.2588 18C24.2588 21.7125 21.2213 24.75 17.5088 24.75Z" fill="#430303"/>
</svg>
